<svg xmlns="http://www.w3.org/2000/svg" xmlns:xlink="http://www.w3.org/1999/xlink" width="317" zoomAndPan="magnify" viewBox="0 0 237.75 57.749997" height="77" preserveAspectRatio="xMidYMid meet" version="1.0"><defs><g/><clipPath id="888c613db6"><path d="M 31 1 L 56.394531 1 L 56.394531 57 L 31 57 Z M 31 1 " clip-rule="nonzero"/></clipPath><clipPath id="877c9c0df6"><path d="M 31.492188 1.136719 L 56.394531 1.136719 L 56.394531 56.164062 L 31.492188 56.164062 Z M 31.492188 1.136719 " clip-rule="nonzero"/></clipPath><clipPath id="4489c0e12e"><path d="M 31.773438 7.710938 C 32.941406 8.191406 34.859375 8.609375 35.992188 8.679688 C 37.710938 8.789062 39.492188 8.472656 40.980469 7.570312 C 41.578125 7.210938 42.355469 7.257812 42.738281 7.894531 C 43.125 8.53125 42.804688 9.242188 42.207031 9.601562 C 40.304688 10.753906 38.046875 11.183594 35.84375 11.046875 C 34.925781 10.992188 33.1875 10.714844 32.066406 10.398438 C 31.925781 10.355469 31.789062 10.382812 31.671875 10.472656 C 31.558594 10.558594 31.496094 10.683594 31.496094 10.828125 L 31.496094 21.175781 C 31.496094 21.382812 31.632812 21.5625 31.839844 21.609375 C 34.054688 22.144531 36.023438 22.394531 38.390625 22.105469 C 41.625 21.710938 46.050781 19.777344 47.128906 16.433594 C 47.34375 15.765625 47.960938 15.292969 48.667969 15.523438 C 49.375 15.75 49.601562 16.496094 49.386719 17.160156 C 48.789062 19.015625 47.613281 20.515625 46.066406 21.679688 C 45.945312 21.765625 45.882812 21.894531 45.886719 22.042969 C 45.886719 22.195312 45.957031 22.320312 46.078125 22.40625 C 47.042969 23.082031 47.839844 23.949219 48.488281 24.929688 C 48.875 25.511719 48.859375 26.289062 48.238281 26.703125 C 47.621094 27.109375 46.894531 26.820312 46.511719 26.238281 C 45.621094 24.898438 44.460938 23.917969 42.886719 23.503906 L 42.746094 23.46875 L 42.613281 23.519531 C 41.347656 23.984375 40.019531 24.296875 38.679688 24.460938 C 36.414062 24.738281 34.234375 24.558594 32.027344 24.136719 C 31.890625 24.113281 31.765625 24.144531 31.65625 24.234375 C 31.550781 24.320312 31.496094 24.441406 31.496094 24.578125 L 31.496094 31.710938 C 31.496094 31.859375 31.558594 31.984375 31.675781 32.070312 C 31.796875 32.160156 31.933594 32.183594 32.074219 32.140625 C 33.164062 31.804688 34.203125 31.558594 35.363281 31.4375 C 35.503906 31.421875 35.617188 31.351562 35.695312 31.234375 C 36.367188 30.199219 36.820312 29.035156 37.015625 27.816406 C 37.128906 27.125 37.667969 26.566406 38.402344 26.6875 C 39.136719 26.804688 39.472656 27.507812 39.359375 28.199219 C 39.210938 29.113281 38.945312 30.007812 38.578125 30.859375 C 38.519531 30.992188 38.527344 31.132812 38.597656 31.261719 C 38.671875 31.386719 38.789062 31.464844 38.933594 31.484375 C 39.859375 31.605469 40.773438 31.8125 41.660156 32.105469 C 42.328125 32.320312 42.796875 32.941406 42.566406 33.648438 C 42.332031 34.355469 41.585938 34.578125 40.921875 34.359375 C 37.988281 33.398438 34.707031 33.800781 31.804688 34.753906 C 31.617188 34.816406 31.496094 34.984375 31.496094 35.179688 L 31.496094 43.8125 C 31.496094 43.9375 31.539062 44.042969 31.628906 44.132812 C 31.71875 44.21875 31.828125 44.261719 31.953125 44.261719 C 35.058594 44.195312 37.996094 45.242188 40.03125 47.789062 C 40.464844 48.335938 40.519531 49.109375 39.9375 49.574219 C 39.355469 50.039062 38.613281 49.816406 38.175781 49.269531 C 36.800781 47.546875 34.207031 46.433594 31.917969 46.558594 C 31.679688 46.570312 31.496094 46.769531 31.496094 47.007812 L 31.496094 55.710938 C 31.496094 55.839844 31.546875 55.953125 31.644531 56.042969 C 31.742188 56.132812 31.859375 56.171875 31.988281 56.15625 C 37.078125 55.628906 46.042969 53.523438 45.792969 48.011719 C 45.675781 45.519531 43.070312 41.695312 40.757812 40.734375 C 40.117188 40.46875 39.695312 39.808594 39.980469 39.125 C 40.265625 38.4375 41.023438 38.277344 41.671875 38.546875 C 42.675781 38.964844 43.59375 39.667969 44.375 40.421875 C 44.492188 40.53125 44.644531 40.574219 44.800781 40.53125 C 44.957031 40.492188 45.070312 40.382812 45.117188 40.226562 C 45.523438 38.882812 46.140625 37.605469 46.945312 36.453125 C 47.339844 35.882812 48.074219 35.609375 48.683594 36.03125 C 49.292969 36.457031 49.289062 37.234375 48.890625 37.808594 C 47.890625 39.25 46.753906 41.007812 47.054688 42.847656 C 47.152344 43.449219 47.371094 44.027344 47.558594 44.605469 C 47.800781 45.347656 47.980469 46.0625 48.078125 46.839844 C 48.097656 46.996094 48.183594 47.117188 48.320312 47.1875 C 48.460938 47.257812 48.609375 47.253906 48.746094 47.175781 C 50.839844 45.988281 52.410156 44.171875 53.199219 41.882812 C 54 39.570312 53.800781 36.324219 52.359375 34.289062 C 50.957031 32.3125 48.402344 31.421875 46.042969 31.539062 C 45.347656 31.574219 44.6875 31.164062 44.648438 30.421875 C 44.613281 29.679688 45.226562 29.207031 45.9375 29.167969 C 45.945312 29.167969 45.949219 29.167969 45.953125 29.167969 C 49.320312 28.875 52.679688 30.394531 54.523438 33.25 C 54.605469 33.382812 54.738281 33.457031 54.894531 33.457031 C 55.050781 33.460938 55.183594 33.390625 55.269531 33.261719 C 56.195312 31.902344 56.6875 30.296875 56.6875 28.652344 C 56.6875 26.265625 55.648438 24 53.84375 22.441406 L 53.5 22.144531 C 53.371094 22.03125 53.316406 21.867188 53.359375 21.695312 L 53.46875 21.257812 C 54.070312 18.84375 53.746094 16.289062 52.5625 14.101562 C 51.773438 12.652344 50.644531 11.425781 49.265625 10.523438 C 49.136719 10.4375 48.988281 10.425781 48.847656 10.484375 C 48.707031 10.542969 48.613281 10.65625 48.582031 10.804688 C 47.90625 13.992188 45.078125 16.273438 41.820312 16.273438 C 41.121094 16.273438 40.480469 15.828125 40.480469 15.082031 C 40.484375 14.335938 41.125 13.902344 41.828125 13.902344 C 44.328125 13.902344 46.355469 11.875 46.355469 9.371094 C 46.355469 3.585938 37.324219 1.679688 31.988281 1.144531 C 31.859375 1.132812 31.738281 1.171875 31.640625 1.257812 C 31.546875 1.347656 31.496094 1.460938 31.496094 1.59375 L 31.496094 7.296875 C 31.496094 7.480469 31.601562 7.640625 31.773438 7.710938 " clip-rule="nonzero"/></clipPath><clipPath id="8618187ace"><path d="M 0.386719 0 L 28 0 L 28 57.5 L 0.386719 57.5 Z M 0.386719 0 " clip-rule="nonzero"/></clipPath><clipPath id="fac86e14b2"><path d="M 0.40625 0.0195312 L 27.113281 0.0195312 L 27.113281 57.28125 L 0.40625 57.28125 Z M 0.40625 0.0195312 " clip-rule="nonzero"/></clipPath><clipPath id="adc802c75c"><path d="M 20.800781 42.511719 C 20.214844 42.511719 19.738281 42.035156 19.738281 41.445312 C 19.738281 41.390625 19.742188 41.332031 19.75 41.277344 C 18.492188 40.351562 17.378906 39.242188 16.449219 37.988281 C 15.527344 36.75 14.785156 35.371094 14.261719 33.894531 C 13.742188 33.824219 13.339844 33.375 13.339844 32.835938 C 13.339844 32.25 13.816406 31.773438 14.40625 31.773438 C 14.992188 31.773438 15.46875 32.25 15.46875 32.835938 C 15.46875 33.144531 15.34375 33.417969 15.136719 33.613281 C 15.628906 34.996094 16.324219 36.285156 17.183594 37.441406 C 18.054688 38.617188 19.09375 39.652344 20.269531 40.523438 C 20.425781 40.433594 20.609375 40.382812 20.800781 40.382812 C 21.390625 40.382812 21.867188 40.859375 21.867188 41.445312 C 21.867188 42.035156 21.390625 42.511719 20.800781 42.511719 M 9.628906 22.257812 C 9.628906 22.84375 9.152344 23.320312 8.5625 23.320312 C 7.976562 23.320312 7.5 22.84375 7.5 22.257812 C 7.5 21.710938 7.910156 21.261719 8.4375 21.199219 C 9.511719 18.230469 11.207031 15.5625 13.367188 13.351562 C 15.53125 11.132812 18.164062 9.375 21.101562 8.230469 C 21.152344 7.691406 21.605469 7.269531 22.160156 7.269531 C 22.75 7.269531 23.226562 7.746094 23.226562 8.335938 C 23.226562 8.921875 22.75 9.398438 22.160156 9.398438 C 21.871094 9.398438 21.605469 9.28125 21.414062 9.09375 C 18.605469 10.1875 16.09375 11.871094 14.023438 13.988281 C 11.957031 16.105469 10.335938 18.65625 9.304688 21.492188 C 9.503906 21.683594 9.628906 21.957031 9.628906 22.257812 Z M 8.496094 37.636719 C 8.496094 37.046875 8.972656 36.570312 9.5625 36.570312 C 10.148438 36.570312 10.625 37.046875 10.625 37.636719 C 10.625 37.886719 10.539062 38.117188 10.394531 38.296875 C 11.664062 40.742188 13.398438 42.90625 15.480469 44.667969 C 17.542969 46.417969 19.949219 47.777344 22.582031 48.625 C 22.777344 48.410156 23.058594 48.273438 23.375 48.273438 C 23.964844 48.273438 24.441406 48.75 24.441406 49.339844 C 24.441406 49.925781 23.964844 50.402344 23.375 50.402344 C 22.84375 50.402344 22.402344 50.011719 22.320312 49.503906 C 19.5625 48.617188 17.046875 47.195312 14.886719 45.367188 C 12.707031 43.523438 10.894531 41.257812 9.574219 38.699219 C 9.570312 38.699219 9.566406 38.699219 9.5625 38.699219 C 8.972656 38.699219 8.496094 38.222656 8.496094 37.636719 Z M 15.753906 41.9375 C 12.566406 38.75 10.519531 34.421875 10.273438 29.625 C 9.902344 29.457031 9.644531 29.085938 9.644531 28.652344 C 9.644531 28.0625 10.121094 27.585938 10.707031 27.585938 C 11.296875 27.585938 11.773438 28.0625 11.773438 28.652344 C 11.773438 29.066406 11.539062 29.425781 11.191406 29.601562 C 11.429688 34.15625 13.375 38.261719 16.402344 41.289062 C 19.101562 43.988281 22.664062 45.828125 26.640625 46.363281 C 26.761719 46.378906 26.875 46.34375 26.96875 46.261719 C 27.058594 46.183594 27.109375 46.074219 27.109375 45.953125 L 27.109375 41.515625 C 27.109375 41.316406 26.96875 41.148438 26.769531 41.109375 C 22.683594 40.363281 19.046875 37.621094 17.339844 33.496094 C 14.664062 27.035156 17.730469 19.628906 24.191406 16.953125 C 25.039062 16.601562 25.902344 16.351562 26.769531 16.191406 C 26.96875 16.15625 27.109375 15.984375 27.109375 15.785156 L 27.109375 14.5 C 27.109375 14.371094 27.058594 14.265625 26.964844 14.183594 C 26.867188 14.101562 26.753906 14.070312 26.628906 14.089844 C 24.148438 14.496094 21.875 15.523438 19.976562 17.003906 C 17.664062 18.804688 15.902344 21.28125 14.984375 24.136719 C 15.207031 24.332031 15.34375 24.617188 15.34375 24.933594 C 15.34375 25.523438 14.867188 26 14.28125 26 C 13.691406 26 13.214844 25.523438 13.214844 24.933594 C 13.214844 24.40625 13.597656 23.96875 14.101562 23.882812 C 15.074219 20.839844 16.949219 18.203125 19.414062 16.28125 C 21.503906 14.652344 24.015625 13.542969 26.753906 13.140625 C 26.960938 13.113281 27.109375 12.941406 27.109375 12.734375 L 27.109375 11.351562 C 27.109375 11.226562 27.0625 11.121094 26.96875 11.039062 C 26.875 10.957031 26.761719 10.925781 26.640625 10.941406 C 24.523438 11.222656 22.519531 11.878906 20.707031 12.835938 C 18.40625 14.050781 16.402344 15.753906 14.832031 17.804688 C 14.917969 17.957031 14.964844 18.128906 14.964844 18.316406 C 14.964844 18.902344 14.488281 19.378906 13.898438 19.378906 C 13.3125 19.378906 12.832031 18.902344 12.832031 18.316406 C 12.832031 17.726562 13.3125 17.25 13.898438 17.25 C 13.964844 17.25 14.027344 17.253906 14.089844 17.265625 C 15.742188 15.101562 17.855469 13.308594 20.277344 12.027344 C 22.253906 10.984375 24.433594 10.28125 26.746094 10 C 26.953125 9.976562 27.109375 9.800781 27.109375 9.589844 L 27.109375 5.773438 C 27.109375 5.433594 26.976562 5.144531 26.71875 4.917969 C 26.464844 4.695312 26.15625 4.601562 25.820312 4.648438 C 25.707031 4.664062 25.589844 4.679688 25.472656 4.699219 C 25.324219 4.71875 25.179688 4.664062 25.085938 4.542969 L 21.683594 0.191406 C 21.582031 0.0585938 21.414062 0 21.25 0.046875 C 20.054688 0.375 18.867188 0.777344 17.695312 1.261719 C 16.519531 1.75 15.394531 2.304688 14.316406 2.917969 C 14.171875 3.003906 14.089844 3.160156 14.113281 3.328125 L 14.785156 8.8125 C 14.804688 8.960938 14.742188 9.101562 14.621094 9.195312 C 12.675781 10.632812 10.984375 12.335938 9.582031 14.234375 C 9.492188 14.355469 9.351562 14.417969 9.199219 14.398438 L 3.714844 13.726562 C 3.546875 13.707031 3.390625 13.785156 3.308594 13.929688 C 2.0625 16.113281 1.09375 18.441406 0.433594 20.867188 C 0.390625 21.03125 0.445312 21.195312 0.578125 21.300781 L 4.929688 24.703125 C 5.050781 24.796875 5.109375 24.9375 5.085938 25.089844 C 4.738281 27.421875 4.726562 29.820312 5.085938 32.214844 C 5.105469 32.367188 5.050781 32.507812 4.929688 32.601562 L 0.578125 36.003906 C 0.441406 36.109375 0.386719 36.273438 0.433594 36.4375 C 0.757812 37.632812 1.164062 38.820312 1.648438 39.996094 C 2.136719 41.171875 2.691406 42.296875 3.304688 43.371094 C 3.390625 43.519531 3.546875 43.597656 3.714844 43.578125 L 9.199219 42.90625 C 9.347656 42.886719 9.488281 42.945312 9.578125 43.070312 C 11.019531 45.015625 12.722656 46.703125 14.621094 48.105469 C 14.742188 48.199219 14.804688 48.339844 14.785156 48.488281 L 14.113281 53.972656 C 14.089844 54.140625 14.171875 54.296875 14.316406 54.382812 C 16.5 55.628906 18.828125 56.59375 21.25 57.253906 C 21.414062 57.300781 21.582031 57.246094 21.6875 57.109375 L 25.089844 52.757812 C 25.183594 52.636719 25.324219 52.582031 25.476562 52.601562 C 25.589844 52.621094 25.707031 52.636719 25.820312 52.652344 C 26.15625 52.699219 26.464844 52.605469 26.71875 52.382812 C 26.976562 52.160156 27.109375 51.867188 27.109375 51.527344 L 27.109375 47.710938 C 27.109375 47.5 26.953125 47.328125 26.746094 47.300781 C 22.472656 46.78125 18.644531 44.828125 15.753906 41.9375 Z M 15.753906 41.9375 " clip-rule="nonzero"/></clipPath></defs><g clip-path="url(#888c613db6)"><path fill="#2e65ff" d="M 31.773438 7.710938 C 32.941406 8.191406 34.859375 8.609375 35.992188 8.679688 C 37.710938 8.789062 39.492188 8.472656 40.980469 7.570312 C 41.578125 7.210938 42.355469 7.257812 42.738281 7.894531 C 43.125 8.53125 42.804688 9.242188 42.207031 9.601562 C 40.304688 10.753906 38.046875 11.183594 35.84375 11.046875 C 34.925781 10.992188 33.1875 10.714844 32.066406 10.398438 C 31.925781 10.355469 31.789062 10.382812 31.671875 10.472656 C 31.558594 10.558594 31.496094 10.683594 31.496094 10.828125 L 31.496094 21.175781 C 31.496094 21.382812 31.632812 21.5625 31.839844 21.609375 C 34.054688 22.144531 36.023438 22.394531 38.390625 22.105469 C 41.625 21.710938 46.050781 19.777344 47.128906 16.433594 C 47.34375 15.765625 47.960938 15.292969 48.667969 15.523438 C 49.375 15.75 49.601562 16.496094 49.386719 17.160156 C 48.789062 19.015625 47.613281 20.515625 46.066406 21.679688 C 45.945312 21.765625 45.882812 21.894531 45.886719 22.042969 C 45.886719 22.195312 45.957031 22.320312 46.078125 22.40625 C 47.042969 23.082031 47.839844 23.949219 48.488281 24.929688 C 48.875 25.511719 48.859375 26.289062 48.238281 26.703125 C 47.621094 27.109375 46.894531 26.820312 46.511719 26.238281 C 45.621094 24.898438 44.460938 23.917969 42.886719 23.503906 L 42.746094 23.46875 L 42.613281 23.519531 C 41.347656 23.984375 40.019531 24.296875 38.679688 24.460938 C 36.414062 24.738281 34.234375 24.558594 32.027344 24.136719 C 31.890625 24.113281 31.765625 24.144531 31.65625 24.234375 C 31.550781 24.320312 31.496094 24.441406 31.496094 24.578125 L 31.496094 31.710938 C 31.496094 31.859375 31.558594 31.984375 31.675781 32.070312 C 31.796875 32.160156 31.933594 32.183594 32.074219 32.140625 C 33.164062 31.804688 34.203125 31.558594 35.363281 31.4375 C 35.503906 31.421875 35.617188 31.351562 35.695312 31.234375 C 36.367188 30.199219 36.820312 29.035156 37.015625 27.816406 C 37.128906 27.125 37.667969 26.566406 38.402344 26.6875 C 39.136719 26.804688 39.472656 27.507812 39.359375 28.199219 C 39.210938 29.113281 38.945312 30.007812 38.578125 30.859375 C 38.519531 30.992188 38.527344 31.132812 38.597656 31.261719 C 38.671875 31.386719 38.789062 31.464844 38.933594 31.484375 C 39.859375 31.605469 40.773438 31.8125 41.660156 32.105469 C 42.328125 32.320312 42.796875 32.941406 42.566406 33.648438 C 42.332031 34.355469 41.585938 34.578125 40.921875 34.359375 C 37.988281 33.398438 34.707031 33.800781 31.804688 34.753906 C 31.617188 34.816406 31.496094 34.984375 31.496094 35.179688 L 31.496094 43.8125 C 31.496094 43.9375 31.539062 44.042969 31.628906 44.132812 C 31.71875 44.21875 31.828125 44.261719 31.953125 44.261719 C 35.058594 44.195312 37.996094 45.242188 40.03125 47.789062 C 40.464844 48.335938 40.519531 49.109375 39.9375 49.574219 C 39.355469 50.039062 38.613281 49.816406 38.175781 49.269531 C 36.800781 47.546875 34.207031 46.433594 31.917969 46.558594 C 31.679688 46.570312 31.496094 46.769531 31.496094 47.007812 L 31.496094 55.710938 C 31.496094 55.839844 31.546875 55.953125 31.644531 56.042969 C 31.742188 56.132812 31.859375 56.171875 31.988281 56.15625 C 37.078125 55.628906 46.042969 53.523438 45.792969 48.011719 C 45.675781 45.519531 43.070312 41.695312 40.757812 40.734375 C 40.117188 40.46875 39.695312 39.808594 39.980469 39.125 C 40.265625 38.4375 41.023438 38.277344 41.671875 38.546875 C 42.675781 38.964844 43.59375 39.667969 44.375 40.421875 C 44.492188 40.53125 44.644531 40.574219 44.800781 40.53125 C 44.957031 40.492188 45.070312 40.382812 45.117188 40.226562 C 45.523438 38.882812 46.140625 37.605469 46.945312 36.453125 C 47.339844 35.882812 48.074219 35.609375 48.683594 36.03125 C 49.292969 36.457031 49.289062 37.234375 48.890625 37.808594 C 47.890625 39.25 46.753906 41.007812 47.054688 42.847656 C 47.152344 43.449219 47.371094 44.027344 47.558594 44.605469 C 47.800781 45.347656 47.980469 46.0625 48.078125 46.839844 C 48.097656 46.996094 48.183594 47.117188 48.320312 47.1875 C 48.460938 47.257812 48.609375 47.253906 48.746094 47.175781 C 50.839844 45.988281 52.410156 44.171875 53.199219 41.882812 C 54 39.570312 53.800781 36.324219 52.359375 34.289062 C 50.957031 32.3125 48.402344 31.421875 46.042969 31.539062 C 45.347656 31.574219 44.6875 31.164062 44.648438 30.421875 C 44.613281 29.679688 45.226562 29.207031 45.9375 29.167969 C 45.945312 29.167969 45.949219 29.167969 45.953125 29.167969 C 49.320312 28.875 52.679688 30.394531 54.523438 33.25 C 54.605469 33.382812 54.738281 33.457031 54.894531 33.457031 C 55.050781 33.460938 55.183594 33.390625 55.269531 33.261719 C 56.195312 31.902344 56.6875 30.296875 56.6875 28.652344 C 56.6875 26.265625 55.648438 24 53.84375 22.441406 L 53.5 22.144531 C 53.371094 22.03125 53.316406 21.867188 53.359375 21.695312 L 53.46875 21.257812 C 54.070312 18.84375 53.746094 16.289062 52.5625 14.101562 C 51.773438 12.652344 50.644531 11.425781 49.265625 10.523438 C 49.136719 10.4375 48.988281 10.425781 48.847656 10.484375 C 48.707031 10.542969 48.613281 10.65625 48.582031 10.804688 C 47.90625 13.992188 45.078125 16.273438 41.820312 16.273438 C 41.121094 16.273438 40.480469 15.828125 40.480469 15.082031 C 40.484375 14.335938 41.125 13.902344 41.828125 13.902344 C 44.328125 13.902344 46.355469 11.875 46.355469 9.371094 C 46.355469 3.585938 37.324219 1.679688 31.988281 1.144531 C 31.859375 1.132812 31.738281 1.171875 31.640625 1.257812 C 31.546875 1.347656 31.496094 1.460938 31.496094 1.59375 L 31.496094 7.296875 C 31.496094 7.480469 31.601562 7.640625 31.773438 7.710938 " fill-opacity="1" fill-rule="nonzero"/></g><g clip-path="url(#877c9c0df6)"><g clip-path="url(#4489c0e12e)"><path fill="#283389" d="M 31.496094 1.132812 L 56.6875 1.132812 L 56.6875 56.171875 L 31.496094 56.171875 Z M 31.496094 1.132812 " fill-opacity="1" fill-rule="nonzero"/></g></g><g clip-path="url(#8618187ace)"><path fill="#2e65ff" d="M 20.800781 42.511719 C 20.214844 42.511719 19.738281 42.035156 19.738281 41.445312 C 19.738281 41.390625 19.742188 41.332031 19.75 41.277344 C 18.492188 40.351562 17.378906 39.242188 16.449219 37.988281 C 15.527344 36.75 14.785156 35.371094 14.261719 33.894531 C 13.742188 33.824219 13.339844 33.375 13.339844 32.835938 C 13.339844 32.25 13.816406 31.773438 14.40625 31.773438 C 14.992188 31.773438 15.46875 32.25 15.46875 32.835938 C 15.46875 33.144531 15.34375 33.417969 15.136719 33.613281 C 15.628906 34.996094 16.324219 36.285156 17.183594 37.441406 C 18.054688 38.617188 19.09375 39.652344 20.269531 40.523438 C 20.425781 40.433594 20.609375 40.382812 20.800781 40.382812 C 21.390625 40.382812 21.867188 40.859375 21.867188 41.445312 C 21.867188 42.035156 21.390625 42.511719 20.800781 42.511719 M 9.628906 22.257812 C 9.628906 22.84375 9.152344 23.320312 8.5625 23.320312 C 7.976562 23.320312 7.5 22.84375 7.5 22.257812 C 7.5 21.710938 7.910156 21.261719 8.4375 21.199219 C 9.511719 18.230469 11.207031 15.5625 13.367188 13.351562 C 15.53125 11.132812 18.164062 9.375 21.101562 8.230469 C 21.152344 7.691406 21.605469 7.269531 22.160156 7.269531 C 22.75 7.269531 23.226562 7.746094 23.226562 8.335938 C 23.226562 8.921875 22.75 9.398438 22.160156 9.398438 C 21.871094 9.398438 21.605469 9.28125 21.414062 9.09375 C 18.605469 10.1875 16.09375 11.871094 14.023438 13.988281 C 11.957031 16.105469 10.335938 18.65625 9.304688 21.492188 C 9.503906 21.683594 9.628906 21.957031 9.628906 22.257812 Z M 8.496094 37.636719 C 8.496094 37.046875 8.972656 36.570312 9.5625 36.570312 C 10.148438 36.570312 10.625 37.046875 10.625 37.636719 C 10.625 37.886719 10.539062 38.117188 10.394531 38.296875 C 11.664062 40.742188 13.398438 42.90625 15.480469 44.667969 C 17.542969 46.417969 19.949219 47.777344 22.582031 48.625 C 22.777344 48.410156 23.058594 48.273438 23.375 48.273438 C 23.964844 48.273438 24.441406 48.75 24.441406 49.339844 C 24.441406 49.925781 23.964844 50.402344 23.375 50.402344 C 22.84375 50.402344 22.402344 50.011719 22.320312 49.503906 C 19.5625 48.617188 17.046875 47.195312 14.886719 45.367188 C 12.707031 43.523438 10.894531 41.257812 9.574219 38.699219 C 9.570312 38.699219 9.566406 38.699219 9.5625 38.699219 C 8.972656 38.699219 8.496094 38.222656 8.496094 37.636719 Z M 15.753906 41.9375 C 12.566406 38.75 10.519531 34.421875 10.273438 29.625 C 9.902344 29.457031 9.644531 29.085938 9.644531 28.652344 C 9.644531 28.0625 10.121094 27.585938 10.707031 27.585938 C 11.296875 27.585938 11.773438 28.0625 11.773438 28.652344 C 11.773438 29.066406 11.539062 29.425781 11.191406 29.601562 C 11.429688 34.15625 13.375 38.261719 16.402344 41.289062 C 19.101562 43.988281 22.664062 45.828125 26.640625 46.363281 C 26.761719 46.378906 26.875 46.34375 26.96875 46.261719 C 27.058594 46.183594 27.109375 46.074219 27.109375 45.953125 L 27.109375 41.515625 C 27.109375 41.316406 26.96875 41.148438 26.769531 41.109375 C 22.683594 40.363281 19.046875 37.621094 17.339844 33.496094 C 14.664062 27.035156 17.730469 19.628906 24.191406 16.953125 C 25.039062 16.601562 25.902344 16.351562 26.769531 16.191406 C 26.96875 16.15625 27.109375 15.984375 27.109375 15.785156 L 27.109375 14.5 C 27.109375 14.371094 27.058594 14.265625 26.964844 14.183594 C 26.867188 14.101562 26.753906 14.070312 26.628906 14.089844 C 24.148438 14.496094 21.875 15.523438 19.976562 17.003906 C 17.664062 18.804688 15.902344 21.28125 14.984375 24.136719 C 15.207031 24.332031 15.34375 24.617188 15.34375 24.933594 C 15.34375 25.523438 14.867188 26 14.28125 26 C 13.691406 26 13.214844 25.523438 13.214844 24.933594 C 13.214844 24.40625 13.597656 23.96875 14.101562 23.882812 C 15.074219 20.839844 16.949219 18.203125 19.414062 16.28125 C 21.503906 14.652344 24.015625 13.542969 26.753906 13.140625 C 26.960938 13.113281 27.109375 12.941406 27.109375 12.734375 L 27.109375 11.351562 C 27.109375 11.226562 27.0625 11.121094 26.96875 11.039062 C 26.875 10.957031 26.761719 10.925781 26.640625 10.941406 C 24.523438 11.222656 22.519531 11.878906 20.707031 12.835938 C 18.40625 14.050781 16.402344 15.753906 14.832031 17.804688 C 14.917969 17.957031 14.964844 18.128906 14.964844 18.316406 C 14.964844 18.902344 14.488281 19.378906 13.898438 19.378906 C 13.3125 19.378906 12.832031 18.902344 12.832031 18.316406 C 12.832031 17.726562 13.3125 17.25 13.898438 17.25 C 13.964844 17.25 14.027344 17.253906 14.089844 17.265625 C 15.742188 15.101562 17.855469 13.308594 20.277344 12.027344 C 22.253906 10.984375 24.433594 10.28125 26.746094 10 C 26.953125 9.976562 27.109375 9.800781 27.109375 9.589844 L 27.109375 5.773438 C 27.109375 5.433594 26.976562 5.144531 26.71875 4.917969 C 26.464844 4.695312 26.15625 4.601562 25.820312 4.648438 C 25.707031 4.664062 25.589844 4.679688 25.472656 4.699219 C 25.324219 4.71875 25.179688 4.664062 25.085938 4.542969 L 21.683594 0.191406 C 21.582031 0.0585938 21.414062 0 21.25 0.046875 C 20.054688 0.375 18.867188 0.777344 17.695312 1.261719 C 16.519531 1.75 15.394531 2.304688 14.316406 2.917969 C 14.171875 3.003906 14.089844 3.160156 14.113281 3.328125 L 14.785156 8.8125 C 14.804688 8.960938 14.742188 9.101562 14.621094 9.195312 C 12.675781 10.632812 10.984375 12.335938 9.582031 14.234375 C 9.492188 14.355469 9.351562 14.417969 9.199219 14.398438 L 3.714844 13.726562 C 3.546875 13.707031 3.390625 13.785156 3.308594 13.929688 C 2.0625 16.113281 1.09375 18.441406 0.433594 20.867188 C 0.390625 21.03125 0.445312 21.195312 0.578125 21.300781 L 4.929688 24.703125 C 5.050781 24.796875 5.109375 24.9375 5.085938 25.089844 C 4.738281 27.421875 4.726562 29.820312 5.085938 32.214844 C 5.105469 32.367188 5.050781 32.507812 4.929688 32.601562 L 0.578125 36.003906 C 0.441406 36.109375 0.386719 36.273438 0.433594 36.4375 C 0.757812 37.632812 1.164062 38.820312 1.648438 39.996094 C 2.136719 41.171875 2.691406 42.296875 3.304688 43.371094 C 3.390625 43.519531 3.546875 43.597656 3.714844 43.578125 L 9.199219 42.90625 C 9.347656 42.886719 9.488281 42.945312 9.578125 43.070312 C 11.019531 45.015625 12.722656 46.703125 14.621094 48.105469 C 14.742188 48.199219 14.804688 48.339844 14.785156 48.488281 L 14.113281 53.972656 C 14.089844 54.140625 14.171875 54.296875 14.316406 54.382812 C 16.5 55.628906 18.828125 56.59375 21.25 57.253906 C 21.414062 57.300781 21.582031 57.246094 21.6875 57.109375 L 25.089844 52.757812 C 25.183594 52.636719 25.324219 52.582031 25.476562 52.601562 C 25.589844 52.621094 25.707031 52.636719 25.820312 52.652344 C 26.15625 52.699219 26.464844 52.605469 26.71875 52.382812 C 26.976562 52.160156 27.109375 51.867188 27.109375 51.527344 L 27.109375 47.710938 C 27.109375 47.5 26.953125 47.328125 26.746094 47.300781 C 22.472656 46.78125 18.644531 44.828125 15.753906 41.9375 Z M 15.753906 41.9375 " fill-opacity="1" fill-rule="nonzero"/></g><g clip-path="url(#fac86e14b2)"><g clip-path="url(#adc802c75c)"><path fill="#283389" d="M 0.386719 0 L 27.109375 0 L 27.109375 57.300781 L 0.386719 57.300781 Z M 0.386719 0 " fill-opacity="1" fill-rule="nonzero"/></g></g><g fill="#283389" fill-opacity="1"><g transform="translate(63.308806, 39.639928)"><g><path d="M 8.4375 0.296875 C 7.726562 0.296875 7.023438 0.21875 6.328125 0.0625 C 5.628906 -0.0820312 4.96875 -0.296875 4.34375 -0.578125 C 3.71875 -0.859375 3.148438 -1.1875 2.640625 -1.5625 C 2.128906 -1.945312 1.703125 -2.367188 1.359375 -2.828125 C 1.273438 -2.941406 1.238281 -3.066406 1.25 -3.203125 C 1.269531 -3.347656 1.34375 -3.488281 1.46875 -3.625 L 3.078125 -5.21875 C 3.191406 -5.332031 3.316406 -5.378906 3.453125 -5.359375 C 3.597656 -5.335938 3.742188 -5.253906 3.890625 -5.109375 C 4.265625 -4.710938 4.691406 -4.359375 5.171875 -4.046875 C 5.660156 -3.734375 6.171875 -3.484375 6.703125 -3.296875 C 7.242188 -3.117188 7.773438 -3.03125 8.296875 -3.03125 C 9.347656 -3.03125 10.148438 -3.234375 10.703125 -3.640625 C 11.265625 -4.046875 11.546875 -4.609375 11.546875 -5.328125 C 11.546875 -5.773438 11.390625 -6.15625 11.078125 -6.46875 C 10.773438 -6.78125 10.332031 -7.066406 9.75 -7.328125 C 9.164062 -7.597656 8.453125 -7.875 7.609375 -8.15625 C 6.722656 -8.445312 5.9375 -8.757812 5.25 -9.09375 C 4.5625 -9.425781 3.972656 -9.800781 3.484375 -10.21875 C 3.003906 -10.644531 2.640625 -11.140625 2.390625 -11.703125 C 2.140625 -12.273438 2.015625 -12.9375 2.015625 -13.6875 C 2.015625 -14.75 2.273438 -15.671875 2.796875 -16.453125 C 3.316406 -17.242188 4.050781 -17.859375 5 -18.296875 C 5.957031 -18.734375 7.085938 -18.953125 8.390625 -18.953125 C 9.097656 -18.953125 9.789062 -18.863281 10.46875 -18.6875 C 11.144531 -18.507812 11.757812 -18.265625 12.3125 -17.953125 C 12.875 -17.640625 13.335938 -17.269531 13.703125 -16.84375 C 13.835938 -16.695312 13.90625 -16.539062 13.90625 -16.375 C 13.90625 -16.21875 13.847656 -16.066406 13.734375 -15.921875 L 12.453125 -14.453125 C 12.273438 -14.242188 12.097656 -14.148438 11.921875 -14.171875 C 11.753906 -14.191406 11.570312 -14.269531 11.375 -14.40625 C 10.957031 -14.800781 10.460938 -15.101562 9.890625 -15.3125 C 9.328125 -15.53125 8.773438 -15.640625 8.234375 -15.640625 C 7.335938 -15.640625 6.644531 -15.453125 6.15625 -15.078125 C 5.664062 -14.710938 5.421875 -14.238281 5.421875 -13.65625 C 5.421875 -13.1875 5.597656 -12.785156 5.953125 -12.453125 C 6.304688 -12.117188 6.78125 -11.820312 7.375 -11.5625 C 7.96875 -11.300781 8.628906 -11.046875 9.359375 -10.796875 C 10.117188 -10.554688 10.84375 -10.289062 11.53125 -10 C 12.21875 -9.71875 12.832031 -9.375 13.375 -8.96875 C 13.914062 -8.570312 14.34375 -8.082031 14.65625 -7.5 C 14.96875 -6.914062 15.125 -6.210938 15.125 -5.390625 C 15.125 -4.515625 14.957031 -3.726562 14.625 -3.03125 C 14.300781 -2.332031 13.84375 -1.734375 13.25 -1.234375 C 12.65625 -0.734375 11.945312 -0.351562 11.125 -0.09375 C 10.3125 0.164062 9.414062 0.296875 8.4375 0.296875 Z M 8.4375 0.296875 "/></g></g></g><g fill="#283389" fill-opacity="1"><g transform="translate(82.134448, 39.639928)"><g><path d="M 15.703125 -18.6875 C 15.890625 -18.6875 16.019531 -18.628906 16.09375 -18.515625 C 16.164062 -18.398438 16.15625 -18.242188 16.0625 -18.046875 L 9.9375 -7.390625 L 9.9375 -0.546875 C 9.9375 -0.171875 9.765625 0.015625 9.421875 0.015625 L 7.03125 0.015625 C 6.65625 0.015625 6.46875 -0.171875 6.46875 -0.546875 L 6.46875 -7.40625 L 0.359375 -18.046875 C 0.273438 -18.253906 0.269531 -18.410156 0.34375 -18.515625 C 0.425781 -18.628906 0.5625 -18.6875 0.75 -18.6875 L 3.546875 -18.6875 C 3.660156 -18.6875 3.773438 -18.640625 3.890625 -18.546875 C 4.015625 -18.460938 4.113281 -18.351562 4.1875 -18.21875 L 8.203125 -10.921875 L 12.234375 -18.234375 C 12.398438 -18.535156 12.625 -18.6875 12.90625 -18.6875 Z M 15.703125 -18.6875 "/></g></g></g><g fill="#283389" fill-opacity="1"><g transform="translate(101.082983, 39.639928)"><g><path d="M 22.234375 -0.546875 C 22.253906 -0.359375 22.210938 -0.21875 22.109375 -0.125 C 22.015625 -0.03125 21.875 0.015625 21.6875 0.015625 L 19.3125 0.015625 C 19.132812 0.015625 19 -0.0234375 18.90625 -0.109375 C 18.8125 -0.191406 18.757812 -0.328125 18.75 -0.515625 L 17.859375 -9.640625 L 12.3125 -0.21875 C 12.207031 -0.0507812 12.117188 0.0664062 12.046875 0.140625 C 11.972656 0.222656 11.863281 0.265625 11.71875 0.265625 L 11.703125 0.265625 C 11.546875 0.265625 11.429688 0.222656 11.359375 0.140625 C 11.296875 0.0664062 11.207031 -0.0507812 11.09375 -0.21875 L 5.5625 -9.625 L 4.65625 -0.515625 C 4.632812 -0.328125 4.578125 -0.191406 4.484375 -0.109375 C 4.390625 -0.0234375 4.257812 0.015625 4.09375 0.015625 L 1.703125 0.015625 C 1.523438 0.015625 1.382812 -0.03125 1.28125 -0.125 C 1.175781 -0.21875 1.140625 -0.359375 1.171875 -0.546875 L 2.96875 -18.5 C 3 -18.800781 3.15625 -18.953125 3.4375 -18.953125 L 3.5 -18.953125 C 3.65625 -18.953125 3.757812 -18.910156 3.8125 -18.828125 C 3.875 -18.753906 3.945312 -18.648438 4.03125 -18.515625 L 11.703125 -5.5 L 19.375 -18.515625 C 19.457031 -18.648438 19.523438 -18.753906 19.578125 -18.828125 C 19.640625 -18.910156 19.75 -18.953125 19.90625 -18.953125 L 19.953125 -18.953125 C 20.222656 -18.953125 20.378906 -18.800781 20.421875 -18.5 Z M 22.234375 -0.546875 "/></g></g></g><g fill="#283389" fill-opacity="1"><g transform="translate(126.987235, 39.639928)"><g><path d="M 8.15625 -18.671875 C 9.351562 -18.671875 10.453125 -18.488281 11.453125 -18.125 C 12.453125 -17.757812 13.320312 -17.242188 14.0625 -16.578125 C 14.800781 -15.910156 15.375 -15.125 15.78125 -14.21875 C 16.1875 -13.320312 16.390625 -12.335938 16.390625 -11.265625 C 16.390625 -10.191406 16.1875 -9.207031 15.78125 -8.3125 C 15.375 -7.414062 14.800781 -6.640625 14.0625 -5.984375 C 13.320312 -5.335938 12.453125 -4.835938 11.453125 -4.484375 C 10.453125 -4.128906 9.351562 -3.953125 8.15625 -3.953125 L 5.703125 -3.953125 L 5.703125 -0.53125 C 5.703125 -0.375 5.648438 -0.242188 5.546875 -0.140625 C 5.453125 -0.0351562 5.316406 0.015625 5.140625 0.015625 L 2.78125 0.015625 C 2.601562 0.015625 2.460938 -0.03125 2.359375 -0.125 C 2.265625 -0.226562 2.21875 -0.363281 2.21875 -0.53125 L 2.21875 -18.125 C 2.21875 -18.289062 2.269531 -18.421875 2.375 -18.515625 C 2.476562 -18.617188 2.613281 -18.671875 2.78125 -18.671875 L 4.046875 -18.671875 C 4.296875 -18.671875 4.523438 -18.671875 4.734375 -18.671875 C 4.941406 -18.671875 5.097656 -18.671875 5.203125 -18.671875 Z M 7.921875 -7 C 8.648438 -7 9.316406 -7.097656 9.921875 -7.296875 C 10.535156 -7.503906 11.066406 -7.800781 11.515625 -8.1875 C 11.960938 -8.570312 12.304688 -9.023438 12.546875 -9.546875 C 12.796875 -10.078125 12.921875 -10.660156 12.921875 -11.296875 C 12.921875 -11.921875 12.796875 -12.492188 12.546875 -13.015625 C 12.304688 -13.546875 11.960938 -14.003906 11.515625 -14.390625 C 11.066406 -14.785156 10.535156 -15.085938 9.921875 -15.296875 C 9.316406 -15.515625 8.648438 -15.625 7.921875 -15.625 L 5.703125 -15.625 L 5.703125 -7 Z M 7.921875 -7 "/></g></g></g><g fill="#283389" fill-opacity="1"><g transform="translate(146.943487, 39.639928)"><g><path d="M 14.140625 -3.046875 C 14.410156 -3.046875 14.546875 -2.90625 14.546875 -2.625 L 14.546875 -0.421875 C 14.546875 -0.140625 14.410156 0 14.140625 0 L 2.640625 0 C 2.359375 0 2.21875 -0.140625 2.21875 -0.421875 L 2.21875 -18.28125 C 2.21875 -18.550781 2.359375 -18.6875 2.640625 -18.6875 L 5.296875 -18.6875 C 5.566406 -18.6875 5.703125 -18.550781 5.703125 -18.28125 L 5.703125 -3.046875 Z M 14.140625 -3.046875 "/></g></g></g><g fill="#283389" fill-opacity="1"><g transform="translate(164.478756, 39.639928)"><g><path d="M 5.6875 -18.28125 L 5.6875 -0.390625 C 5.6875 -0.117188 5.546875 0.015625 5.265625 0.015625 L 2.625 0.015625 C 2.351562 0.015625 2.21875 -0.117188 2.21875 -0.390625 L 2.21875 -18.28125 C 2.21875 -18.550781 2.351562 -18.6875 2.625 -18.6875 L 5.265625 -18.6875 C 5.546875 -18.6875 5.6875 -18.550781 5.6875 -18.28125 Z M 5.6875 -18.28125 "/></g></g></g><g fill="#283389" fill-opacity="1"><g transform="translate(174.910833, 39.639928)"><g><path d="M 15 -18.671875 C 15.375 -18.671875 15.5625 -18.488281 15.5625 -18.125 L 15.5625 -15.921875 C 15.5625 -15.554688 15.375 -15.375 15 -15.375 L 5.703125 -15.375 L 5.703125 -9.1875 L 13.140625 -9.1875 C 13.347656 -9.1875 13.507812 -9.132812 13.625 -9.03125 C 13.738281 -8.9375 13.796875 -8.796875 13.796875 -8.609375 L 13.796875 -6.5625 C 13.796875 -6.394531 13.738281 -6.257812 13.625 -6.15625 C 13.507812 -6.050781 13.347656 -6 13.140625 -6 L 5.703125 -6 L 5.703125 -0.546875 C 5.703125 -0.179688 5.523438 0 5.171875 0 L 2.78125 0 C 2.40625 0 2.21875 -0.179688 2.21875 -0.546875 L 2.21875 -18.125 C 2.21875 -18.488281 2.40625 -18.671875 2.78125 -18.671875 Z M 15 -18.671875 "/></g></g></g><g fill="#004aad" fill-opacity="1"><g transform="translate(193.958057, 39.639928)"><g><path d="M 18.078125 -0.609375 C 18.160156 -0.421875 18.164062 -0.265625 18.09375 -0.140625 C 18.019531 -0.0234375 17.878906 0.03125 17.671875 0.03125 L 15.03125 0.03125 C 14.894531 0.03125 14.769531 -0.015625 14.65625 -0.109375 C 14.539062 -0.210938 14.457031 -0.328125 14.40625 -0.453125 L 13.65625 -2.28125 L 5.078125 -2.28125 L 4.328125 -0.46875 C 4.265625 -0.332031 4.179688 -0.21875 4.078125 -0.125 C 3.972656 -0.03125 3.84375 0.015625 3.6875 0.015625 L 1.0625 0.015625 C 0.851562 0.015625 0.707031 -0.0390625 0.625 -0.15625 C 0.550781 -0.269531 0.554688 -0.421875 0.640625 -0.609375 L 8.59375 -18.4375 C 8.65625 -18.582031 8.75 -18.695312 8.875 -18.78125 C 9.007812 -18.875 9.140625 -18.921875 9.265625 -18.921875 L 9.421875 -18.921875 C 9.566406 -18.921875 9.695312 -18.875 9.8125 -18.78125 C 9.9375 -18.6875 10.035156 -18.566406 10.109375 -18.421875 Z M 6.296875 -5.25 L 12.421875 -5.25 L 9.359375 -12.6875 Z M 6.296875 -5.25 "/></g></g></g><g fill="#004aad" fill-opacity="1"><g transform="translate(215.192392, 39.639928)"><g><path d="M 5.6875 -18.28125 L 5.6875 -0.390625 C 5.6875 -0.117188 5.546875 0.015625 5.265625 0.015625 L 2.625 0.015625 C 2.351562 0.015625 2.21875 -0.117188 2.21875 -0.390625 L 2.21875 -18.28125 C 2.21875 -18.550781 2.351562 -18.6875 2.625 -18.6875 L 5.265625 -18.6875 C 5.546875 -18.6875 5.6875 -18.550781 5.6875 -18.28125 Z M 5.6875 -18.28125 "/></g></g></g></svg>